PathFileType	4	(X/Y/Z)	..\data\2015035\dynamic\2015035_C5_03.trc
DataRate	CameraRate	NumFrames	NumMarkers	Units	OrigDataRate	OrigDataStartFrame	OrigNumFrames
100.000000	100.000000	4	52	mm	100.000000	20	161
Frame#	Time	L_IAS			L_IPS			R_IPS			R_IAS			L_FTC			L_FLE			L_FME			L_FAX			L_TTC			L_FAL			L_TAM			L_FCC			L_FM1			L_FM2			L_FM5			R_FTC			R_FLE			R_FME			R_FAX			R_TTC			R_FAL			R_TAM			R_FCC			R_FM1			R_FM2			R_FM5			CV7			TV10			SXS			SJN			L_SIA			L_SRS			L_SAA			L_SAE			L_HLE			L_HME			L_UOA			L_RSP			L_UHE			L_HM2			L_HM5			R_SIA			R_SRS			R_SAA			R_SAE			R_HLE			R_HME			R_UOA			R_RSP			R_UHE			R_HM2			R_HM5			
		X1	Y1	Z1	X2	Y2	Z2	X3	Y3	Z3	X4	Y4	Z4	X5	Y5	Z5	X6	Y6	Z6	X7	Y7	Z7	X8	Y8	Z8	X9	Y9	Z9	X10	Y10	Z10	X11	Y11	Z11	X12	Y12	Z12	X13	Y13	Z13	X14	Y14	Z14	X15	Y15	Z15	X16	Y16	Z16	X17	Y17	Z17	X18	Y18	Z18	X19	Y19	Z19	X20	Y20	Z20	X21	Y21	Z21	X22	Y22	Z22	X23	Y23	Z23	X24	Y24	Z24	X25	Y25	Z25	X26	Y26	Z26	X27	Y27	Z27	X28	Y28	Z28	X29	Y29	Z29	X30	Y30	Z30	X31	Y31	Z31	X32	Y32	Z32	X33	Y33	Z33	X34	Y34	Z34	X35	Y35	Z35	X36	Y36	Z36	X37	Y37	Z37	X38	Y38	Z38	X39	Y39	Z39	X40	Y40	Z40	X41	Y41	Z41	X42	Y42	Z42	X43	Y43	Z43	X44	Y44	Z44	X45	Y45	Z45	X46	Y46	Z46	X47	Y47	Z47	X48	Y48	Z48	X49	Y49	Z49	X50	Y50	Z50	X51	Y51	Z51	X52	Y52	Z52	

21	0.2	-996.0312500000002	945.423767089844	123.7631530761718	-1185.692138671875	974.1076660156252	221.069366455078	-1181.3095703125	972.104919433594	306.5281372070311	-992.7760009765627	960.5629882812502	389.6397705078125	-1092.788818359375	871.6396484375002	77.2487335205077	-1083.2939453125	453.5511169433595	60.40576934814441	-1056.16455078125	439.8235778808595	199.533706665039	-1119.4755859375	425.0657348632814	55.79223632812488	-1083.125610351563	355.4966125488282	101.4045410156249	-1417.612060546875	235.4352416992188	115.9129028320311	-1378.336181640625	208.968734741211	200.4363555908202	-1455.887817382813	252.8980407714844	178.2678375244139	-1407.537231445313	75.67264556884767	188.1781921386717	-1392.702026367188	74.63161468505861	135.982467651367	-1428.250732421875	113.2583312988282	87.52642059326156	-1058.578491210938	872.225280761719	447.1231994628906	-920.8413085937502	467.1801147460939	381.5740966796874	-930.303405761719	477.7702941894532	257.7385864257812	-938.739929199219	420.2272338867189	382.0734558105468	-876.9708251953127	407.9486694335939	326.7048950195312	-973.7793579101565	62.43636322021486	346.1345214843749	-935.303405761719	84.15655517578126	258.9898071289062	-1009.076354980469	22.69449806213379	300.2028503417968	-815.1016235351565	22.72015953063965	270.8832702636718	-798.8629150390627	32.64324569702149	326.6423339843749	-864.3054199218752	18.08963394165039	377.2924194335937	-1142.994384765625	1484.140380859375	267.1632995605468	-1201.050903320313	1192.60009765625	263.7434082031249	-954.7632446289065	1224.022705078125	252.7573699951171	-1004.561767578125	1395.596557617188	263.7238769531249	-1209.126220703125	1274.06298828125	142.1188354492186	-1182.331787109375	1422.3564453125	169.558868408203	-1106.02294921875	1420.257568359375	74.29228210449206	-1057.479858398438	1422.201293945313	69.95368194580067	-1054.13232421875	1122.632934570313	-39.82075500488295	-1090.013671875	1090.318237304688	42.70125961303698	-1087.406982421875	1070.38720703125	-14.17821788787855	-833.9981079101565	979.0533447265627	36.97556686401358	-862.7587890625002	939.659362792969	-23.02236938476574	-755.1589965820314	939.7221679687502	42.26456069946281	-816.1399536132815	874.094909667969	-13.76282405853282	-1207.730346679688	1262.871337890625	387.9035644531249	-1173.5888671875	1409.186645507813	364.8824768066405	-1100.875	1392.417358398438	463.2121887207031	-1049.164184570313	1387.463012695313	470.6127319335938	-1089.730224609375	1085.248657226563	538.400390625	-1141.459106445313	1082.988403320313	462.4311828613281	-1138.672119140625	1064.731323242188	522.5176391601562	-1002.658081054688	828.4525146484377	485.1517944335938	-1051.140502929688	824.6104125976565	547.627685546875	-984.6112670898441	737.3363037109376	482.8282165527344	-1061.165161132813	758.2298583984376	554.242431640625	
22	0.21	-982.5000610351565	948.836364746094	124.5708084106444	-1171.889526367188	977.4329223632815	222.8654022216796	-1167.37158203125	975.376403808594	308.2430114746093	-978.5906372070315	963.0151367187502	390.693115234375	-1078.957641601563	875.1358032226565	78.83138275146473	-1055.089233398438	457.1738586425782	61.05171585082996	-1027.624633789063	443.9700317382814	200.6383972167968	-1090.490112304688	428.4828186035157	56.70936584472644	-1053.644775390625	359.2038574218751	102.8621978759765	-1388.022583007813	238.6886749267579	117.911521911621	-1348.946411132813	213.5893249511719	202.8499298095702	-1427.478393554688	255.2974853515626	179.8995819091795	-1373.7431640625	79.91006469726564	190.4670104980467	-1358.883422851563	78.99871063232423	138.6139373779295	-1395.31884765625	116.8395004272461	89.89337921142562	-1045.234985351563	874.5223388671877	448.0555419921875	-916.2413330078127	466.806121826172	381.9891662597656	-926.356384277344	477.4844360351564	258.0302124023437	-934.972595214844	420.0616455078126	382.4560852050781	-873.486511230469	407.0211181640626	327.1771240234374	-973.882995605469	62.5017547607422	346.2845458984374	-935.3804931640627	84.22493743896486	259.2571411132812	-1009.112670898438	22.6788330078125	300.2593383789062	-815.3175048828127	23.15036392211914	270.7287292480468	-798.6513671875002	32.99879455566407	326.6740722656249	-864.3840942382815	18.3486385345459	377.3824157714843	-1128.790771484375	1487.27734375	268.8417968749999	-1187.146484375	1195.848876953125	265.5501403808593	-941.0979003906252	1226.956176757813	252.9556427001953	-990.482116699219	1398.722412109375	264.5148010253906	-1195.875244140625	1277.525268554688	144.4464263916014	-1168.803588867188	1425.656494140625	171.4467163085936	-1093.265258789063	1423.476318359375	75.5927276611327	-1044.735107421875	1425.3935546875	70.98156738281239	-1043.880126953125	1124.8271484375	-37.18331527709974	-1080.201538085938	1093.334838867188	45.33617782592761	-1078.682739257813	1074.147583007813	-11.31632995605482	-830.5025024414065	969.1855468750002	36.13114547729483	-861.6241455078127	932.4362792968752	-24.29038047790539	-753.9136352539064	925.3889770507815	40.78021621704093	-818.7678833007815	864.422790527344	-16.20547866821299	-1192.856689453125	1266.350463867188	390.0273132324218	-1159.065673828125	1412.305297851563	366.7156066894531	-1085.63720703125	1395.161010742188	464.5848693847656	-1033.796997070313	1390.595581054688	471.4528198242188	-1069.3388671875	1088.110107421875	540.1216430664062	-1121.642211914063	1084.535888671875	463.7143249511719	-1117.830200195313	1066.408081054688	524.2325439453125	-976.1812744140628	833.3933105468752	486.6266784667969	-1024.492309570313	828.413757324219	549.1968994140625	-955.2169189453128	743.0732421875001	484.827880859375	-1032.569702148438	761.7630004882814	556.0477905273438	
23	0.22	-968.9920654296877	952.6215820312502	125.3289260864257	-1158.1015625	980.9934692382815	224.6789398193359	-1153.425537109375	978.7111816406252	309.9798889160156	-964.4600830078127	965.519958496094	391.6742858886719	-1065.199340820313	879.1296997070315	80.20883178710926	-1027.213989257813	461.4181213378907	61.86945724487293	-999.6451416015627	448.9754943847657	201.8255920410156	-1061.86181640625	432.3443908691407	57.8512725830077	-1024.186645507813	363.5400085449219	104.4465332031249	-1357.6044921875	240.4151000976563	119.8453216552733	-1318.629272460938	217.1334533691407	205.2371673583983	-1398.500732421875	255.8281250000001	181.4441680908202	-1337.711547851563	83.04702758789064	192.9001464843749	-1322.824829101563	82.57877349853517	141.418731689453	-1360.434326171875	118.9230117797852	92.34742736816391	-1031.919921875	876.7617797851565	448.8873596191406	-912.2156982421877	466.4573364257814	382.3745727539062	-922.976745605469	477.1789855957032	258.3177185058593	-931.7564697265627	419.9231262207032	382.8106079101562	-870.568054199219	406.156951904297	327.6096801757812	-974.0300292968752	62.51864624023439	346.4827575683593	-935.4732666015627	84.28369903564455	259.5964355468749	-1009.2275390625	22.6862850189209	300.3420715332031	-815.5645751953127	23.4691276550293	270.5881042480468	-798.6001586914065	33.25798797607423	326.6369934082031	-864.5021972656252	18.45792388916016	377.4431762695312	-1114.768188476563	1490.477905273438	270.4207153320312	-1173.339111328125	1199.204345703125	267.3263244628905	-927.5147705078127	1230.078979492188	253.1704711914062	-976.563415527344	1401.984375	265.2183837890624	-1182.761352539063	1281.0810546875	146.7029876708983	-1155.43896484375	1429.001953125	173.2517547607421	-1080.711303710938	1426.816650390625	76.81612396240223	-1032.182739257813	1428.734741210938	71.91459655761707	-1033.634155273438	1127.203002929688	-34.6224288940431	-1070.443237304688	1096.607055664063	47.90758514404285	-1069.940063476563	1078.18359375	-8.541300773620739	-827.7301025390627	959.691345214844	35.12466049194327	-861.1752929687502	925.793640136719	-25.67329406738293	-753.7684936523439	911.4483032226565	39.09378814697257	-822.360046386719	855.5071411132815	-18.80703163146983	-1178.143432617188	1269.969604492188	392.0983886718749	-1144.75244140625	1415.567749023438	368.4289245605468	-1070.654418945313	1398.125122070313	465.8235473632812	-1018.625	1393.98779296875	472.2166748046875	-1049.171508789063	1091.2705078125	541.6891479492188	-1101.688598632813	1086.356323242188	464.9945983886719	-1097.122192382813	1068.307983398438	525.6472778320312	-949.4556274414066	838.899841308594	488.1792907714844	-997.8198242187503	832.7122802734377	550.6488647460938	-925.4822387695316	749.4750976562501	487.0409545898438	-1003.858032226563	765.8542480468751	557.76171875	
24	0.23	-955.4471435546877	956.6837158203127	126.0877838134765	-1144.293212890625	984.6866455078127	226.4412689208984	-1139.451293945313	982.0447387695315	311.6806335449218	-950.3845825195315	968.0562744140627	392.6113586425781	-1051.396118164063	883.4831542968752	81.35931396484364	-999.7349853515627	466.1268310546876	62.83955764770497	-972.218933105469	454.6459350585939	203.0520629882812	-1033.661987304688	436.5067443847657	59.17567062377918	-994.8312988281252	368.3759155273438	106.0906906127929	-1326.445190429688	240.5525665283204	121.7242431640624	-1287.435668945313	219.4368743896485	207.5720977783202	-1368.937133789063	254.4700012207032	182.9533538818358	-1299.79052734375	85.00474548339845	195.4143981933593	-1284.894775390625	85.24246978759767	144.3255310058592	-1323.910522460938	119.4954071044922	94.8541107177733	-1018.65087890625	878.921813964844	449.6377258300781	-908.683776855469	466.1554260253907	382.7563171386718	-920.022155761719	476.893280029297	258.6318664550781	-929.0020751953127	419.8365173339845	383.1590576171874	-868.112976074219	405.3760681152345	328.0195617675781	-974.1907958984377	62.50953674316408	346.7238159179687	-935.5488891601565	84.34837341308595	259.9944763183593	-1009.402648925781	22.74435806274414	300.4550170898437	-815.821472167969	23.66385650634766	270.4663391113281	-798.6553955078127	33.39643096923829	326.5455627441406	-864.644470214844	18.42485046386719	377.4933166503906	-1100.904663085938	1493.670654296875	271.9009704589843	-1159.5751953125	1202.589111328125	269.0691528320312	-913.9698486328127	1233.332153320313	253.4403686523437	-962.7776489257815	1405.31787109375	265.8536987304687	-1169.743774414063	1284.65380859375	148.8639068603514	-1142.19482421875	1432.316772460938	174.9727935791014	-1068.296630859375	1430.211059570313	77.97814941406239	-1019.759033203125	1432.140258789063	72.77193450927723	-1023.425964355469	1129.709838867188	-32.16746139526381	-1060.775024414063	1100.089965820313	50.39195251464832	-1061.194213867188	1082.418212890625	-5.887755393982064	-825.6321411132815	950.6626586914065	33.97027206420889	-861.3266601562502	919.7960205078127	-27.156801223755	-754.6704101562501	898.0285644531252	37.23485946655265	-826.8043212890627	847.433776855469	-21.53603172302257	-1163.55029296875	1273.644409179688	394.1455383300781	-1130.618774414063	1418.892944335938	370.0310363769531	-1055.8984375	1401.254028320313	466.9463500976562	-1003.6572265625	1397.57421875	472.9222717285156	-1029.2705078125	1094.672119140625	543.1287841796875	-1081.6748046875	1088.421020507813	466.1983642578125	-1076.59228515625	1070.378784179688	526.8048095703125	-922.5443725585941	844.9509887695315	489.788330078125	-971.1734619140628	837.4537353515627	551.9556884765625	-895.4951171875003	756.5242919921876	489.4087524414062	-975.0952758789066	770.4553222656252	559.3272705078125	
